# xmcd
# Track frame offsets:
# 150
# 13441
# 24739
# 39622
# 51066
# 64949
# 77104
# 92251
# 111144
# 123756
# 138230
# 147854
# 158582
# 172906
# 186034
# 197575
#
# Disc length: 2815 seconds
# Revision: 0
# Processed by: cddbd v1.5.2PL0 Copyright (c) Steve Scherf et al.
# Submitted via: VisiTrax 2.10.3.257 - For more info visit www.synapsa.com
#
DISCID=cd0afd10
DTITLE=Various Artist - Queens of Country
DYEAR=2003
DGENRE=
TTITLE0=Parton, Dolly - Little Blossom
TTITLE1=Fargo, Donna - The happiest girl in the whole USA
TTITLE2=Riley, Jeannie C - Harper Valley PTA
TTITLE3=Cline, Patsy - Walking after Midnight
TTITLE4=Fairchild, Barbara - The Teddy Bear song
TTITLE5=Posey, Sandy - Single Girl
TTITLE6=Stone, Judy - Welcome Home
TTITLE7=Tucker, Tanya - Delta Dawn
TTITLE8=Wells, Kitty - Making Believe
TTITLE9=Lynn, Loretta - Coal miners daughter
TTITLE10=Mandrell, Barbara - Release Me
TTITLE11=Spears, Billie Jo - All I have to do is dream
TTITLE12=Seely, Jeannie - Don't touch me
TTITLE13=Anderson, Lynn - Rose Garden
TTITLE14=Smith, Sammi - Help me make it Through the night
TTITLE15=Tammy Wynette - Stand by your man
EXTD=
EXTT0=
EXTT1=
EXTT2=
EXTT3=
EXTT4=
EXTT5=
EXTT6=
EXTT7=
EXTT8=
EXTT9=
EXTT10=
EXTT11=
EXTT12=
EXTT13=
EXTT14=
EXTT15=
PLAYORDER=
